<svg width="1272" height="712" viewBox="0 0 1272 712" fill="none" xmlns="http://www.w3.org/2000/svg">
<rect x="27.1992" y="39.4004" width="113" height="113" rx="20" fill="white"/>
<path d="M92.5163 60.8965C95.5317 58.7063 99.5031 58.1331 103.16 58.5059C106.884 58.8855 110.785 60.2847 114.013 62.666C117.268 65.0674 119.946 68.5591 120.863 73.0771C121.783 77.6065 120.838 82.6932 117.737 88.1086L117.569 88.4009L111.145 96.0062C118.93 102.036 121.678 110.532 120.475 118.061C119.131 126.472 112.628 134.006 102.965 134.006C94.0729 134.006 86.3389 128.442 85.3923 119.731C84.4748 111.287 90.1573 101.904 103.139 93.9402L111.396 84.1654C113.679 80.064 114.012 76.8835 113.537 74.5404C113.048 72.1327 111.61 70.1321 109.553 68.615C107.47 67.0778 104.863 66.132 102.396 65.8805C99.9503 65.6312 98.0932 66.0968 97.043 66.8002L85.6028 76.7775L75.1095 87.3394C75.1077 87.3413 75.1056 87.3435 75.1034 87.3457C75.0897 87.3597 75.0692 87.3805 75.0423 87.4079C74.9883 87.4628 74.9085 87.5442 74.8054 87.6492C74.5992 87.8591 74.2992 88.1642 73.925 88.5451C73.1766 89.3069 72.1306 90.3719 70.9402 91.5837C69.5187 93.0306 67.8911 94.687 66.3187 96.2877C71.2885 99.9974 74.998 103.534 77.5922 106.898C80.7728 111.023 82.4389 115.106 82.3993 119.038C82.3162 127.288 75.1132 131.982 68.15 133.874C59.441 136.241 50.2896 130.315 46.794 122.227C44.9668 117.999 44.5506 113.005 46.3856 107.913C47.8605 103.82 50.7166 99.8589 55.1162 96.2376C54.9057 96.0033 54.7005 95.775 54.5044 95.5568C53.9878 94.982 53.5339 94.4769 53.2092 94.1155C53.0468 93.9348 52.9167 93.79 52.8272 93.6904C52.7954 93.6551 52.7687 93.6253 52.7475 93.6017C47.5324 88.3541 45.1574 82.6796 45.272 77.2418C45.3863 71.8135 47.9754 67.1221 51.7111 63.8781C59.09 57.4706 71.6015 56.2889 79.9971 66.1272L83.1276 69.0645L92.3816 60.9943L92.5163 60.8965ZM60.6407 101.343C56.6036 104.471 54.4315 107.61 53.423 110.409C52.2634 113.627 52.5305 116.685 53.6632 119.306C56.0875 124.915 61.9624 127.869 66.1751 126.724C72.1336 125.105 74.8948 122.076 74.9261 118.964C74.9437 117.215 74.2046 114.708 71.6561 111.403C69.406 108.485 65.8705 105.116 60.6407 101.343ZM105.613 101.167C94.9169 108.148 92.3773 114.836 92.8229 118.936C93.2776 123.121 97.0657 126.593 102.965 126.593C108.094 126.593 112.179 122.621 113.093 116.9C113.902 111.837 112.051 105.632 105.613 101.167ZM74.3988 71.0424C69.0942 64.7038 61.3939 65.3228 56.634 69.456C54.2781 71.5018 52.8094 74.3012 52.7442 77.3965C52.6808 80.4074 53.939 84.1875 57.9387 88.2652L58.1312 88.4594L58.2014 88.5297L58.2677 88.6033L58.2701 88.6057C58.2716 88.6074 58.2738 88.61 58.2768 88.6133C58.2828 88.6199 58.2916 88.6299 58.3033 88.6428C58.3267 88.6689 58.3613 88.7077 58.4061 88.7575C58.4956 88.857 58.6257 89.0018 58.788 89.1825C59.1128 89.5439 59.5667 90.049 60.0832 90.6238C60.2917 90.8558 60.5104 91.0991 60.7349 91.349C62.3783 89.6761 64.0964 87.9276 65.5876 86.4097C66.778 85.1979 67.824 84.1332 68.5724 83.3714C68.9466 82.9905 69.2462 82.6851 69.4525 82.4752C69.5556 82.3702 69.6354 82.2891 69.6894 82.2342C69.7164 82.2067 69.737 82.1857 69.7508 82.1717C69.7576 82.1648 69.7629 82.1596 69.7663 82.156C69.7681 82.1543 69.7694 82.1527 69.7703 82.1518L69.7715 82.1506L69.7788 82.1431L69.7864 82.1355L77.6966 74.1733L74.5426 71.2144L74.3988 71.0424Z" fill="#A50000"/>
<rect x="303.199" y="39.4004" width="113" height="113" rx="20" fill="black"/>
<mask id="mask0_345_10640" style="mask-type:alpha" maskUnits="userSpaceOnUse" x="303" y="39" width="114" height="114">
<rect x="303.199" y="39.4004" width="113" height="113" rx="20" fill="black"/>
</mask>
<g mask="url(#mask0_345_10640)">
<path d="M357.425 84.4004C356.274 84.4004 355.081 84.4671 353.879 84.5989C350.243 85.009 346.947 85.9692 344.081 87.4522C341.098 88.9936 338.82 91.0554 337.495 93.414C337.147 94.0304 336.858 94.6902 336.635 95.3745C336.415 96.0451 336.267 96.7425 336.183 97.5066C336.049 98.6999 336.129 99.9701 336.422 101.281C336.101 100.933 335.695 100.591 335.224 100.26C334.452 99.7228 333.585 99.3038 332.645 99.0141C331.755 98.7387 330.803 98.5998 329.813 98.5998C328.926 98.5998 328.011 98.7125 327.092 98.9336C326.224 99.1416 325.315 99.4748 324.392 99.9231C323.559 100.33 322.739 100.842 321.955 101.444C320.367 102.669 319.053 104.193 318.154 105.849C317.196 107.607 316.714 109.527 316.761 111.402C316.812 113.414 317.498 115.439 318.744 117.255L318.646 117.246C317.013 117.246 315.325 117.456 313.485 117.885C312.189 118.19 311.023 118.563 309.921 119.029C307.855 119.896 305.975 121.096 304.334 122.597C302.773 124.027 301.459 125.708 300.426 127.596C299.446 129.385 298.746 131.362 298.348 133.469C297.567 137.632 298.141 142.055 299.965 145.925C300.423 146.905 300.986 147.886 301.64 148.84C302.258 149.741 303.001 150.65 303.848 151.543C305.301 153.068 307.103 154.47 309.356 155.831C311.405 157.063 313.674 158.13 316.1 159.004C318.59 159.903 321.151 160.564 323.713 160.966C325.558 161.255 327.39 161.4 329.156 161.4C329.925 161.4 330.709 161.372 331.486 161.316C334.097 161.125 336.54 160.576 338.748 159.686C340.539 158.967 342.176 158.004 343.613 156.823C344.545 157.52 345.699 158.155 347.036 158.713C348.931 159.498 351.043 160.051 353.311 160.357C354.542 160.521 355.787 160.604 357.01 160.604C358.026 160.604 359.049 160.546 360.051 160.432C362.335 160.172 364.426 159.612 366.264 158.766C367.506 158.194 368.604 157.498 369.528 156.697C369.95 156.332 370.343 155.941 370.695 155.536C372.115 156.372 373.701 157.134 375.405 157.803C377.746 158.719 380.27 159.42 382.907 159.885C385.349 160.313 387.83 160.531 390.282 160.531C393.144 160.531 395.998 160.237 398.763 159.656C401.338 159.112 403.834 158.292 406.178 157.22C408.518 156.148 410.698 154.783 412.658 153.163C413.661 152.331 414.582 151.438 415.391 150.508C416.218 149.556 416.969 148.529 417.623 147.457C418.894 145.375 419.812 143.09 420.347 140.666C420.869 138.295 420.997 135.884 420.725 133.499C420.449 131.079 419.765 128.758 418.692 126.6C417.613 124.428 416.068 122.402 414.223 120.739C413.217 119.833 412.132 119.033 410.995 118.362C409.797 117.658 408.459 117.056 407.021 116.576C404.901 115.864 402.718 115.498 400.53 115.486H400.428C399.404 115.486 398.35 115.584 397.295 115.776C396.534 115.918 395.781 116.125 395.056 116.391C395.771 115.481 396.317 114.406 396.685 113.203C396.855 112.638 396.979 112.009 397.061 111.282C397.118 110.763 397.13 110.232 397.102 109.658C396.994 107.592 396.268 105.518 394.998 103.66C393.809 101.916 392.175 100.418 390.273 99.3264C388.376 98.2392 386.293 97.6354 384.246 97.5817C384.159 97.5793 384.07 97.5793 383.981 97.5793C382.625 97.5793 381.252 97.8589 380.012 98.3858C378.985 98.8245 378.021 99.4522 377.15 100.253C377.326 97.9799 376.839 95.6254 375.751 93.4468C375.057 92.061 374.105 90.789 372.922 89.6684C370.726 87.5869 367.824 86.0878 364.296 85.2128C362.691 84.8111 360.95 84.5542 359.124 84.4487C358.526 84.4159 357.953 84.4004 357.425 84.4004Z" fill="#9999FF"/>
<path d="M340.643 109.009L340.641 109.008L340.643 109.009Z" fill="#E0DFE5"/>
<path d="M406.728 116.439C406.724 116.439 406.707 116.46 406.707 116.463C407.109 116.76 407.418 117.005 407.68 117.235C408.476 117.916 409.217 118.695 409.879 119.55C411.183 121.226 412.274 123.205 413.121 125.43C413.532 126.526 413.874 127.617 414.136 128.672C414.41 129.779 414.615 130.877 414.748 131.934C414.882 133 414.948 134.039 414.946 135.025C414.944 135.536 414.926 136.009 414.89 136.474C414.85 136.969 414.787 137.48 414.703 137.994C414.343 140.25 413.666 142.384 412.693 144.338C411.741 146.246 410.522 148.011 409.071 149.583C408.331 150.383 407.558 151.123 406.771 151.782C405.957 152.468 405.085 153.12 404.177 153.717C402.368 154.901 400.4 155.911 398.332 156.721C394.18 158.341 389.744 159.193 385.146 159.251C384.979 159.253 384.81 159.256 384.643 159.256C382.289 159.256 379.989 159.045 377.805 158.632C379.318 159.158 381.035 159.588 382.902 159.923C385.362 160.352 387.845 160.57 390.281 160.57C393.104 160.57 395.961 160.276 398.772 159.695C401.366 159.14 403.862 158.316 406.191 157.247C408.544 156.169 410.728 154.805 412.679 153.191C413.699 152.339 414.621 151.444 415.416 150.534C416.249 149.569 417.001 148.538 417.649 147.47C418.922 145.396 419.84 143.111 420.377 140.679C420.901 138.299 421.03 135.882 420.761 133.498C420.488 131.081 419.8 128.756 418.718 126.587C417.646 124.42 416.1 122.389 414.246 120.713C413.232 119.802 412.143 119.002 411.008 118.337C409.814 117.629 408.477 117.027 407.034 116.548L406.82 116.475L406.736 116.448L406.728 116.439Z" fill="white" fill-opacity="0.2"/>
<path d="M353.974 84.5508C353.943 84.5532 353.909 84.5579 353.878 84.5621C350.227 84.9782 346.926 85.9414 344.068 87.4238C341.078 88.967 338.795 91.033 337.467 93.3993C337.112 94.0216 336.822 94.6821 336.605 95.3622C336.387 96.0232 336.237 96.7242 336.146 97.5056C336.012 98.6977 336.095 99.9721 336.389 101.293C336.176 100.969 335.786 100.614 335.24 100.234C334.468 99.6926 333.599 99.2723 332.657 98.9856C331.761 98.7037 330.805 98.56 329.814 98.56C328.929 98.56 328.01 98.6757 327.08 98.9058C326.22 99.1072 325.311 99.4398 324.38 99.8952C323.553 100.293 322.729 100.805 321.931 101.419C320.338 102.65 319.022 104.177 318.126 105.837C317.163 107.601 316.678 109.526 316.725 111.403C316.776 113.42 317.466 115.449 318.719 117.272L318.658 117.215H318.646C316.99 117.214 315.302 117.425 313.473 117.858C312.163 118.163 310.997 118.537 309.91 119C307.847 119.863 305.962 121.064 304.31 122.571C302.741 124.013 301.425 125.699 300.4 127.583C299.423 129.363 298.721 131.344 298.313 133.469C297.531 137.637 298.108 142.066 299.939 145.939C300.389 146.913 300.953 147.894 301.616 148.858C302.219 149.746 302.962 150.659 303.823 151.571C305.273 153.09 307.079 154.492 309.343 155.858C311.391 157.096 313.661 158.163 316.09 159.033C318.58 159.934 321.144 160.598 323.711 161.005L324.021 161.051C322.939 160.689 322.033 160.365 321.253 160.05C319.435 159.308 317.784 158.418 316.346 157.408C314.743 156.278 313.336 155 312.163 153.609C311.541 152.879 310.959 152.096 310.432 151.285C309.834 150.347 309.367 149.501 309.005 148.7C308.619 147.843 308.302 146.988 308.064 146.162C307.925 145.68 307.816 145.231 307.727 144.788C307.632 144.322 307.56 143.892 307.512 143.515C307.053 140.117 307.561 136.585 308.981 133.303C309.694 131.668 310.602 130.137 311.679 128.754C312.812 127.303 314.095 126.022 315.494 124.947C316.261 124.355 317.037 123.83 317.8 123.388C318.271 123.115 318.694 122.888 319.093 122.693C319.635 122.432 320.08 122.237 320.492 122.079C321.083 121.857 321.696 121.667 322.312 121.514C322.927 121.362 323.489 121.252 324.032 121.178C324.661 121.082 325.246 121.017 325.821 120.979C326.311 120.946 326.806 120.924 327.297 120.912C326.614 119.946 326.11 119.082 325.761 118.261C325.546 117.741 325.395 117.309 325.287 116.903C325.172 116.451 325.098 116.049 325.058 115.678C324.956 114.795 324.994 113.943 325.169 113.143C325.345 112.353 325.626 111.619 326.003 110.962C326.352 110.363 326.756 109.827 327.203 109.369C327.677 108.875 328.2 108.439 328.756 108.074C329.96 107.291 331.326 106.776 332.706 106.587C333.218 106.513 333.726 106.474 334.218 106.474C334.445 106.474 334.674 106.483 334.904 106.501C335.707 106.559 336.462 106.695 337.149 106.906C337.931 107.144 338.682 107.463 339.38 107.856C339.806 108.102 340.194 108.353 340.532 108.602C340.658 108.696 340.78 108.789 340.9 108.887C340.472 107.976 340.147 107.201 339.913 106.511C339.623 105.647 339.422 104.817 339.317 104.043C339.193 103.181 339.148 102.404 339.179 101.67C339.232 100.092 339.543 98.5457 340.102 97.0765C340.4 96.2998 340.732 95.5827 341.088 94.9431C341.512 94.1921 341.958 93.5001 342.416 92.8861C343.396 91.5635 344.543 90.3421 345.824 89.2573C347.123 88.1528 348.537 87.177 350.028 86.3563C351.33 85.6451 352.66 85.0527 353.983 84.5931L353.974 84.5508Z" fill="white" fill-opacity="0.2"/>
<path d="M407.894 128.091C407.575 128.276 407.339 128.584 407.242 128.94C407.146 129.285 407.177 129.728 407.384 130.033C407.668 130.451 407.909 130.899 408.116 131.358C408.366 131.992 408.541 132.647 408.649 133.32C408.766 134.341 408.734 135.379 408.61 136.401C408.359 138.102 407.87 139.771 407.215 141.36C406.55 142.907 405.698 144.369 404.672 145.702C404.678 145.696 404.682 145.688 404.688 145.681C403.72 146.919 402.62 148.051 401.378 149.016C401.402 148.996 401.429 148.976 401.456 148.954C400.712 149.526 399.922 150.041 399.062 150.415C399.077 150.407 399.092 150.4 399.107 150.393C398.942 150.463 398.775 150.528 398.603 150.586C398.432 150.646 398.321 150.811 398.372 150.996C398.417 151.163 398.61 151.288 398.782 151.228C400.228 150.729 401.528 149.916 402.719 148.965C404.12 147.845 405.349 146.524 406.471 145.13C407.656 143.658 408.732 142.086 409.593 140.402C410.464 138.696 411.043 136.865 411.257 134.964C411.379 133.861 411.308 132.75 411.107 131.661C410.902 130.572 410.457 129.517 409.838 128.599C409.624 128.285 409.361 128.051 408.987 127.947C408.865 127.913 408.739 127.896 408.613 127.896C408.362 127.896 408.112 127.962 407.894 128.091ZM404.752 145.6C404.733 145.623 404.715 145.646 404.697 145.67C404.715 145.647 404.733 145.622 404.752 145.6ZM399.107 150.392C399.118 150.388 399.128 150.384 399.14 150.379C399.128 150.384 399.118 150.388 399.107 150.392Z" fill="white" fill-opacity="0.2"/>
<path d="M405.781 125.423C405.781 126.2 406.429 126.848 407.206 126.848C407.984 126.848 408.632 126.2 408.632 125.423C408.632 124.646 407.983 123.998 407.206 123.998C406.43 123.998 405.781 124.647 405.781 125.423Z" fill="white" fill-opacity="0.2"/>
<path d="M312.876 133.346C312.301 134.341 311.838 135.394 311.515 136.499C311.206 137.564 311.07 138.689 311.043 139.792C310.989 142.033 311.482 144.249 312.312 146.319C313.196 148.515 314.532 150.502 316.125 152.248C317.678 153.951 319.532 155.437 321.57 156.517C322.824 157.18 324.175 157.671 325.57 157.937C325.957 158.013 326.316 158 326.665 157.795C326.984 157.61 327.22 157.301 327.318 156.947C327.42 156.579 327.367 156.178 327.175 155.851C327.001 155.553 326.674 155.266 326.325 155.199C325.184 154.974 324.076 154.621 323.001 154.18C321.632 153.578 320.342 152.816 319.151 151.913C317.966 150.968 316.895 149.874 315.956 148.686C314.999 147.426 314.166 146.054 313.54 144.6C313.091 143.479 312.747 142.308 312.571 141.11C312.447 140.086 312.445 139.058 312.57 138.036C312.719 137.026 312.984 136.044 313.373 135.098C313.545 134.712 313.737 134.338 313.948 133.971C314.116 133.678 314.019 133.295 313.725 133.123C313.628 133.066 313.521 133.039 313.415 133.039C313.2 133.039 312.989 133.149 312.876 133.346ZM313.343 135.165C313.335 135.181 313.328 135.198 313.321 135.214C313.328 135.199 313.335 135.181 313.343 135.165Z" fill="white" fill-opacity="0.2"/>
<path d="M383.741 100.265C383.558 100.287 383.409 100.323 383.273 100.459C383.151 100.581 383.082 100.751 383.082 100.924C383.082 101.251 383.382 101.627 383.741 101.585C384.086 101.545 384.423 101.541 384.765 101.577C385.132 101.639 385.483 101.741 385.83 101.876C386.294 102.085 386.728 102.35 387.138 102.653C387.634 103.054 388.067 103.51 388.469 104.005C389.081 104.815 389.545 105.73 389.949 106.658C390.306 107.537 390.601 108.443 390.752 109.38C390.754 109.402 390.755 109.425 390.757 109.447C390.786 109.827 390.889 110.157 391.165 110.434C391.425 110.694 391.784 110.841 392.151 110.841C392.913 110.841 393.546 110.207 393.546 109.447C393.546 108.834 393.474 108.229 393.336 107.632C393.192 106.999 392.931 106.392 392.639 105.815C392.065 104.677 391.194 103.701 390.254 102.851C388.68 101.422 386.633 100.221 384.461 100.221C384.221 100.221 383.981 100.236 383.741 100.265ZM390.734 109.216C390.737 109.236 390.74 109.257 390.741 109.277C390.739 109.257 390.736 109.236 390.734 109.216Z" fill="white" fill-opacity="0.2"/>
<path d="M415.777 149.446C415.78 149.442 415.783 149.439 415.785 149.436C415.784 149.438 415.78 149.441 415.777 149.446Z" fill="#C3DFFF"/>
<path fill-rule="evenodd" clip-rule="evenodd" d="M342.343 123.939C342.45 121.325 343.516 117.142 346.415 117.044C349.473 116.941 350.217 120.999 350.49 124.334C350.703 126.948 350.451 129.986 348.982 131.389C347.517 130.891 345.702 130.871 344.586 131.232C342.881 129.66 342.24 126.423 342.343 123.939Z" fill="black"/>
<path d="M350.681 132.541C350.615 132.541 350.548 132.524 350.486 132.488C346.197 130.045 342.793 132.369 342.65 132.469C342.471 132.594 342.225 132.551 342.1 132.373C341.974 132.196 342.016 131.95 342.194 131.823C342.353 131.711 346.139 129.102 350.877 131.803C351.067 131.911 351.133 132.151 351.025 132.342C350.952 132.47 350.819 132.541 350.681 132.541Z" fill="black"/>
<path d="M338.747 126.152C338.531 126.152 338.354 125.978 338.352 125.762C338.351 125.654 338.332 123.103 339.173 120.453C340.314 116.856 342.498 114.854 345.49 114.663C347.418 114.54 349.062 115.097 350.373 116.321C353.65 119.379 353.719 125.496 353.721 125.755C353.722 125.973 353.546 126.151 353.328 126.152C353.327 126.152 353.326 126.152 353.326 126.152C353.109 126.152 352.932 125.977 352.931 125.759C352.93 125.699 352.859 119.72 349.833 116.897C348.687 115.829 347.242 115.342 345.54 115.452C339.105 115.863 339.141 125.654 339.142 125.753C339.144 125.971 338.97 126.15 338.751 126.152C338.75 126.152 338.748 126.152 338.747 126.152Z" fill="black"/>
<path d="M356.684 131.24C356.643 131.24 356.602 131.234 356.561 131.22C356.354 131.152 356.241 130.929 356.309 130.722C356.424 130.372 357.488 127.306 359.416 127.298C359.419 127.298 359.422 127.298 359.425 127.298C361.358 127.298 362.585 130.097 362.637 130.216C362.723 130.417 362.631 130.649 362.43 130.736C362.23 130.822 361.997 130.729 361.911 130.529C361.617 129.849 360.598 128.088 359.424 128.088C359.423 128.088 359.421 128.088 359.419 128.088C358.263 128.093 357.324 130.169 357.06 130.969C357.005 131.135 356.85 131.24 356.684 131.24Z" fill="black"/>
<path d="M360.147 142.945C354.517 142.945 351.777 139.019 351.662 138.851C351.539 138.67 351.586 138.424 351.767 138.301C351.947 138.178 352.192 138.225 352.315 138.405C352.341 138.443 355.009 142.243 360.334 142.153C365.533 142.068 366.389 136.842 366.422 136.62C366.455 136.404 366.657 136.255 366.872 136.289C367.088 136.322 367.236 136.522 367.204 136.738C367.195 136.799 366.221 142.847 360.347 142.944C360.28 142.945 360.213 142.945 360.147 142.945Z" fill="black"/>
<path d="M367.632 136.934C366.666 136.934 365.838 136.419 365.279 135.437C365.17 135.247 365.236 135.006 365.426 134.898C365.616 134.79 365.857 134.855 365.965 135.046C366.36 135.738 367.11 136.463 368.44 135.992C368.646 135.92 368.872 136.028 368.944 136.234C369.017 136.439 368.909 136.665 368.704 136.737C368.333 136.87 367.974 136.934 367.632 136.934Z" fill="black"/>
<path d="M350.535 139.641C350.343 139.641 350.175 139.501 350.145 139.305C350.112 139.09 350.259 138.89 350.474 138.856C350.528 138.847 351.712 138.631 352.523 137.164C352.629 136.974 352.869 136.904 353.06 137.009C353.251 137.116 353.32 137.356 353.215 137.547C352.206 139.372 350.661 139.626 350.595 139.636C350.575 139.639 350.555 139.641 350.535 139.641Z" fill="black"/>
<path fill-rule="evenodd" clip-rule="evenodd" d="M337.465 138.803C337.327 136.698 337.8 133.38 342.437 133.01C347.54 132.603 349.163 140.226 345.656 142.268C342.26 144.245 337.724 142.756 337.465 138.803Z" fill="#FE7D7B"/>
<path fill-rule="evenodd" clip-rule="evenodd" d="M371.367 138.803C371.229 136.698 371.703 133.38 376.34 133.01C381.443 132.603 383.065 140.226 379.558 142.268C376.162 144.245 371.626 142.756 371.367 138.803Z" fill="#FE7D7B"/>
<path fill-rule="evenodd" clip-rule="evenodd" d="M366.809 126.556C366.809 126.556 368.602 121.562 373.922 122.153C378.082 122.614 378.787 126.855 378.787 126.855C378.787 126.855 377.665 124.804 373.393 124.044C370.345 123.502 366.809 126.556 366.809 126.556Z" fill="black"/>
</g>
<g filter="url(#filter0_d_345_10640)">
<rect x="579.199" y="39.4004" width="113" height="113" rx="20" fill="white"/>
</g>
<path fill-rule="evenodd" clip-rule="evenodd" d="M633.483 61.0314C635.029 60.0885 636.97 60.0885 638.516 61.0314L673.734 82.5152C676.832 84.4049 676.832 88.9118 673.734 90.8015L663.102 97.2875V113.474C663.102 115.192 662.196 116.781 660.719 117.653L638.456 130.801C636.94 131.696 635.058 131.696 633.542 130.801L611.278 117.653C609.802 116.781 608.896 115.192 608.896 113.474V97.3289L622.447 105.575L633.487 112.292C635.03 113.231 636.967 113.231 638.511 112.292L647.688 106.708C648.844 106.004 649.55 104.747 649.55 103.391V99.3215C649.55 97.8089 647.9 96.8781 646.61 97.6631L638.511 102.591C636.967 103.53 635.03 103.53 633.487 102.591L622.447 95.8738L611.836 89.4175C610.546 88.6325 608.896 89.5633 608.896 91.0759V97.2865L598.265 90.8015C595.167 88.9118 595.167 84.4049 598.265 82.5152L633.483 61.0314Z" fill="#5296D5"/>
<rect x="855.199" y="39.4004" width="113" height="113" rx="20" fill="white"/>
<path d="M876.885 88.8287C884.87 99.197 894.179 114.122 899.172 126.2C900.782 108.9 902.188 82.6938 888.197 70.3487L887.264 69.5273L886.368 70.4233C881.738 75.0153 878.042 79.8313 875.018 85.1327L874.57 85.9167L875.168 86.626C875.728 87.3727 876.288 88.1193 876.885 88.8287Z" fill="#00958A"/>
<path d="M897.866 137.399C894.006 121.959 882.341 107.275 872.778 94.6152L871.322 92.6738L870.463 94.9512C867.85 101.82 866.095 109.623 865.199 118.21C871.957 126.684 886.293 134.002 897.866 137.399Z" fill="#007167"/>
<path d="M946.4 88.8287C938.415 99.197 929.106 114.122 924.113 126.2C922.503 108.9 921.097 82.6938 935.088 70.3487L936.022 69.5273L936.918 70.4233C941.547 75.0153 945.243 79.8313 948.267 85.1327L948.715 85.9167L948.118 86.626C947.558 87.3727 946.998 88.1193 946.4 88.8287Z" fill="#00958A"/>
<path d="M925.419 137.399C929.28 121.959 940.944 107.275 950.507 94.6152L951.963 92.6738L952.822 94.9512C955.435 101.82 957.19 109.623 958.086 118.21C951.329 126.684 936.993 134.002 925.419 137.399Z" fill="#007167"/>
<path d="M912.049 53.6621C914.35 54.7044 918.292 56.6382 922.932 59.627L917.597 71.0488L925.394 61.2705C926.656 62.1443 927.955 63.0917 929.273 64.1152L930.533 65.0859L929.348 66.168C910.206 83.3158 919.164 113.786 919.164 137.4H903.606C903.606 113.766 912.656 83.418 893.639 66.168L892.453 65.0859L893.712 64.1152C894.945 63.1643 896.161 62.2797 897.345 61.4561L905.21 70.9736L899.766 59.8271C904.519 56.7367 908.564 54.7253 910.938 53.6621L911.493 53.4004L912.049 53.6621ZM909.626 60.5293L911.493 74.9043L913.359 60.5293L911.493 56.6104L909.626 60.5293Z" fill="#C9A13F"/>
<path d="M1131.2 62.4731C1131.2 49.7304 1141.53 39.4004 1154.27 39.4004H1221.13C1233.87 39.4004 1244.2 49.7304 1244.2 62.4731V129.328C1244.2 142.07 1233.87 152.4 1221.13 152.4H1154.27C1141.53 152.4 1131.2 142.07 1131.2 129.328V62.4731Z" fill="#584DFF"/>
<mask id="mask1_345_10640" style="mask-type:alpha" maskUnits="userSpaceOnUse" x="1131" y="39" width="114" height="114">
<path d="M1131.2 62.4731C1131.2 49.7304 1141.53 39.4004 1154.27 39.4004H1221.13C1233.87 39.4004 1244.2 49.7304 1244.2 62.4731V129.328C1244.2 142.07 1233.87 152.4 1221.13 152.4H1154.27C1141.53 152.4 1131.2 142.07 1131.2 129.328V62.4731Z" fill="#584DFF"/>
</mask>
<g mask="url(#mask1_345_10640)">
<path d="M1145.6 94.6854C1145.6 89.059 1149.39 84.1372 1154.83 82.6948L1167.9 79.2297C1184.2 74.7072 1195.87 71.3233 1203.76 64.6948C1213.29 56.6811 1227.37 51.4825 1230.99 63.4037C1231.05 63.6273 1231.31 63.7385 1231.52 63.6411C1232.46 63.2111 1233.3 62.7868 1234.06 62.3611C1240.53 58.7472 1248.85 57.9864 1249.15 65.3901C1249.23 67.4386 1250.14 69.3862 1251.8 70.5901L1253.91 72.1228C1257.13 74.4564 1259.04 78.1898 1259.04 82.1637V139.995C1259.04 146.846 1253.48 152.4 1246.63 152.4H1154.52C1149.6 152.4 1145.6 148.408 1145.6 143.484V94.6854Z" fill="black"/>
<path d="M1153.03 100.663C1153.03 95.8207 1156.48 91.6627 1161.23 90.7604L1214.4 80.6779C1218.22 79.9533 1221.76 82.883 1221.76 86.7719L1221.76 124.969C1221.76 129.937 1218.13 134.165 1213.22 134.928L1160.19 143.172C1156.43 143.757 1153.03 140.849 1153.03 137.043L1153.03 100.663Z" fill="white"/>
<path d="M1208.35 114.195C1207.7 114.32 1207.19 114.218 1206.81 113.889C1206.44 113.542 1206.27 113.042 1206.3 112.387C1206.33 111.733 1206.56 111.173 1206.98 110.706C1207.4 110.221 1207.93 109.917 1208.58 109.792C1209.22 109.667 1209.72 109.77 1210.08 110.103C1210.46 110.414 1210.64 110.897 1210.6 111.551C1210.57 112.223 1210.34 112.801 1209.92 113.286C1209.51 113.767 1208.99 114.07 1208.35 114.195ZM1213.04 113.283C1212.4 113.408 1211.89 113.306 1211.51 112.977C1211.13 112.63 1210.96 112.129 1210.99 111.475C1211.03 110.821 1211.25 110.26 1211.67 109.794C1212.1 109.309 1212.63 109.004 1213.27 108.879C1213.91 108.754 1214.42 108.858 1214.78 109.19C1215.16 109.502 1215.33 109.985 1215.3 110.639C1215.26 111.311 1215.03 111.889 1214.61 112.374C1214.21 112.855 1213.68 113.158 1213.04 113.283ZM1203.77 128.606C1202.62 128.83 1201.74 128.061 1201.8 126.889L1201.84 126.078C1201.88 125.354 1202.49 124.655 1203.2 124.517C1204.1 124.341 1204.78 123.281 1204.8 122.371C1204.8 122.3 1204.8 122.228 1204.81 122.156C1204.91 120.175 1205.54 118.495 1206.7 117.115C1207.73 115.882 1209.03 115.112 1210.61 114.805C1212.23 114.491 1213.47 114.775 1214.34 115.656C1215.09 116.403 1215.43 117.501 1215.35 118.951L1215.23 121.232C1215.15 122.789 1214.63 124.132 1213.68 125.263C1212.72 126.393 1211.46 127.111 1209.9 127.415L1203.77 128.606ZM1211.06 119.628C1211.09 119.062 1210.87 118.825 1210.4 118.916C1209.56 119.079 1209.11 119.832 1209.04 121.176C1208.96 122.661 1209.34 123.323 1210.17 123.161C1210.64 123.069 1210.89 122.741 1210.92 122.175L1211.06 119.628Z" fill="black"/>
<path d="M1191.23 131.043C1189.67 131.347 1188.75 129.856 1189.54 128.303C1189.94 127.53 1190.68 126.95 1191.45 126.799L1193.81 126.34C1194.33 126.239 1194.61 125.923 1194.63 125.393C1194.68 124.53 1194.47 123.813 1193.99 123.243C1193.33 122.447 1192.97 121.269 1193.61 120.135C1194.25 119.009 1195.57 118.391 1196.4 118.983C1197.93 120.062 1198.77 121.581 1198.91 123.537C1198.98 124.313 1199.11 124.786 1199.3 124.958C1199.5 125.13 1199.92 125.153 1200.56 125.028C1201.6 124.826 1202.4 125.518 1202.34 126.573L1202.33 126.811C1202.27 127.969 1201.3 129.086 1200.16 129.307C1200 129.338 1199.85 129.363 1199.7 129.384C1198.01 129.608 1196.09 130.098 1194.4 130.427L1191.23 131.043Z" fill="black"/>
<path d="M1173.45 129.073C1173.56 126.999 1174.83 124.769 1176.33 123.001C1176.62 122.657 1176.94 122.333 1177.28 122.027C1178.49 120.952 1179.87 120.264 1181.41 119.964C1183.55 119.548 1185.25 119.891 1186.52 120.992C1187.7 122.04 1188.24 123.572 1188.14 125.588L1188.09 126.516C1188 128.214 1187.4 129.643 1186.29 130.804C1185.33 131.797 1184.11 132.437 1182.63 132.724L1178.87 133.454C1177.77 133.668 1176.64 133.888 1175.54 134.102L1173.71 134.457C1172.56 134.681 1171.67 133.913 1171.74 132.741L1171.81 131.383C1171.83 130.961 1172.18 130.553 1172.6 130.472C1173.07 130.38 1173.45 129.87 1173.44 129.394C1173.44 129.285 1173.44 129.178 1173.45 129.073ZM1183.8 127.14L1183.84 126.424C1183.88 125.522 1183.67 124.864 1183.19 124.449C1182.71 124.034 1182.02 123.915 1181.12 124.09C1180.73 124.167 1180.59 124.701 1180.82 124.96C1181.35 125.552 1181.59 126.399 1181.53 127.502C1181.5 128.151 1181.93 128.658 1182.57 128.534L1182.85 128.48C1183.27 128.399 1183.52 128.297 1183.61 128.174C1183.71 128.033 1183.77 127.688 1183.8 127.14ZM1176.34 128.091C1176.27 129.403 1178.62 128.947 1178.69 127.635C1178.73 126.839 1178.36 126.517 1177.58 126.669C1176.79 126.821 1176.38 127.295 1176.34 128.091Z" fill="black"/>
<path d="M1170.36 135.108C1169.38 135.299 1168.62 134.646 1168.68 133.649L1168.71 133.013C1168.76 132.017 1169.6 131.055 1170.58 130.864C1171.56 130.674 1172.31 131.327 1172.26 132.323L1172.22 132.96C1172.17 133.956 1171.33 134.918 1170.36 135.108Z" fill="black"/>
<path d="M1166.29 135.893C1164.66 136.21 1163.41 135.928 1162.54 135.046C1161.78 134.268 1161.43 133.145 1161.51 131.677L1161.96 124.943C1161.99 124.404 1162.22 123.848 1162.61 123.385C1164.01 121.68 1166.34 122.185 1166.22 124.167L1165.82 130.628C1165.8 131.088 1165.86 131.382 1166.01 131.511C1166.15 131.64 1166.45 131.66 1166.91 131.572L1167.25 131.507C1168.4 131.283 1169.28 132.051 1169.22 133.223C1169.16 134.395 1168.17 135.527 1167.02 135.751L1166.29 135.893Z" fill="black"/>
<path d="M1206.09 98.7689C1206.17 97.1066 1206.75 95.7071 1207.83 94.5705C1208.77 93.5814 1209.95 92.95 1211.36 92.6763C1213.17 92.3249 1214.53 92.7249 1215.45 93.8762C1216.24 94.8424 1216.6 96.1832 1216.51 97.8985C1216.4 99.8968 1215.78 101.584 1214.64 102.961C1213.65 104.187 1212.4 104.945 1210.91 105.235C1210.71 105.274 1210.51 105.307 1210.32 105.334C1208.58 105.582 1206.68 106.057 1204.94 106.396L1204.21 106.538C1203.05 106.762 1202.17 105.993 1202.23 104.821C1202.29 103.649 1203.28 102.518 1204.43 102.294L1204.77 102.228C1205.22 102.14 1205.53 102.001 1205.69 101.812C1205.86 101.622 1205.95 101.298 1205.98 100.838L1206.09 98.7689ZM1210.25 100.612C1210.23 100.983 1210.44 101.125 1210.9 101.037C1211.75 100.871 1212.21 100.046 1212.29 98.5604C1212.36 97.2165 1211.98 96.6256 1211.14 96.7878C1210.67 96.879 1210.43 97.2076 1210.4 97.7734L1210.25 100.612Z" fill="black"/>
<path d="M1200.87 107.189C1199.89 107.379 1199.14 106.726 1199.19 105.729L1199.23 105.093C1199.28 104.097 1200.11 103.135 1201.09 102.944C1202.07 102.754 1202.82 103.407 1202.77 104.404L1202.74 105.04C1202.69 106.036 1201.85 106.998 1200.87 107.189Z" fill="black"/>
<path d="M1197.41 103.664L1197.75 103.598C1198.9 103.374 1199.79 104.143 1199.73 105.315C1199.67 106.487 1198.68 107.618 1197.53 107.842L1196.8 107.984C1194.94 108.345 1192.84 108.753 1190.98 109.114L1190.25 109.256C1189.1 109.48 1188.22 108.711 1188.28 107.54C1188.34 106.368 1189.33 105.236 1190.48 105.012L1190.82 104.946C1191.27 104.858 1191.58 104.72 1191.74 104.53C1191.91 104.34 1192 104.016 1192.02 103.556L1192.18 100.526C1192.23 99.7139 1192.71 98.8828 1193.43 98.3669C1194.91 97.3201 1196.57 98.0421 1196.49 99.6895L1196.33 102.72C1196.3 103.179 1196.36 103.474 1196.51 103.602C1196.66 103.731 1196.96 103.752 1197.41 103.664ZM1189.75 111.481C1190.39 111.356 1190.9 111.451 1191.26 111.765C1191.64 112.094 1191.81 112.586 1191.78 113.24C1191.74 113.912 1191.51 114.49 1191.09 114.975C1190.69 115.456 1190.16 115.759 1189.52 115.884C1188.88 116.009 1188.37 115.898 1187.99 115.551C1187.61 115.222 1187.44 114.731 1187.47 114.076C1187.51 113.422 1187.73 112.853 1188.16 112.368C1188.58 111.902 1189.11 111.606 1189.75 111.481ZM1194.44 110.568C1195.09 110.443 1195.59 110.538 1195.95 110.853C1196.33 111.182 1196.5 111.674 1196.47 112.328C1196.43 113 1196.21 113.578 1195.78 114.063C1195.38 114.544 1194.86 114.847 1194.21 114.972C1193.57 115.097 1193.06 114.986 1192.68 114.639C1192.3 114.31 1192.13 113.818 1192.17 113.164C1192.2 112.51 1192.43 111.941 1192.85 111.456C1193.27 110.989 1193.8 110.693 1194.44 110.568Z" fill="black"/>
<path d="M1178.1 100.511C1177.46 100.636 1176.95 100.534 1176.57 100.205C1176.19 99.8583 1176.02 99.3578 1176.05 98.7035C1176.09 98.0492 1176.32 97.4887 1176.74 97.0219C1177.16 96.5375 1177.69 96.2327 1178.33 96.1077C1178.98 95.9827 1179.48 96.0864 1179.84 96.4188C1180.22 96.7301 1180.39 97.2129 1180.36 97.8672C1180.32 98.5392 1180.09 99.1174 1179.67 99.6019C1179.27 100.083 1178.75 100.386 1178.1 100.511ZM1186.5 105.784L1186.84 105.718C1187.99 105.494 1188.87 106.263 1188.81 107.435C1188.75 108.607 1187.77 109.739 1186.61 109.963L1185.88 110.104C1185.32 110.214 1184.78 110.669 1184.54 111.24C1184 112.538 1183.17 113.661 1182.03 114.607C1180.76 115.678 1179.25 116.383 1177.51 116.721C1175.08 117.194 1173.24 116.685 1171.99 115.194C1171.02 114.053 1170.58 112.563 1170.68 110.724C1170.73 109.69 1170.96 108.715 1171.36 107.799C1171.56 107.335 1171.98 106.977 1172.43 106.793C1173.79 106.244 1174.89 107.535 1174.77 108.935C1174.77 109.013 1174.76 109.091 1174.76 109.169C1174.7 110.354 1174.93 111.253 1175.47 111.866C1176 112.462 1176.76 112.666 1177.73 112.476C1179.77 112.081 1180.83 110.964 1180.93 109.125L1181.27 102.646C1181.31 101.834 1181.79 101.003 1182.52 100.487C1183.99 99.4405 1185.66 100.163 1185.57 101.81L1185.41 104.84C1185.39 105.3 1185.45 105.594 1185.6 105.723C1185.75 105.852 1186.05 105.872 1186.5 105.784Z" fill="black"/>
<path d="M1166.28 112.81C1166.26 113.228 1165.91 113.632 1165.5 113.712L1163.12 114.174C1162.71 114.254 1162.39 113.98 1162.41 113.562C1162.57 110.592 1157.36 109.924 1157.58 105.681C1157.76 102.257 1160.44 98.2856 1164.7 97.4586C1168.14 96.7892 1170.38 98.6148 1171.01 101.151C1171.25 102.135 1170.32 103.206 1169.25 103.414C1168.18 103.622 1167.4 102.819 1166.82 102.062C1166.41 101.525 1165.69 101.166 1164.49 101.398C1162.11 101.861 1161.5 103.96 1161.45 104.929C1161.31 107.657 1166.49 108.749 1166.28 112.81ZM1162.37 117.139C1162.42 116.139 1163.27 115.165 1164.25 114.974C1165.23 114.783 1166 115.445 1165.94 116.445C1165.89 117.445 1165.04 118.419 1164.06 118.61C1163.08 118.801 1162.32 118.139 1162.37 117.139Z" fill="black"/>
</g>
<rect x="27.1992" y="305.4" width="113" height="113" rx="20" fill="black"/>
<path d="M125.559 319.947L120.822 328.61L116.917 324.62L125.559 319.947Z" fill="#BFBBD8"/>
<path d="M98.0328 381.848C101.37 383.78 103.375 386.165 103.96 387.117L96.0569 393.922L76.957 384.482L83.5432 367.139C92.3248 370.651 92.9102 375.042 92.3248 376.579C92.676 378.511 96.2765 380.896 98.0328 381.848Z" fill="#8779DB"/>
<path d="M67.8805 355.242C71.2175 357.174 73.2226 359.56 73.808 360.511L65.9046 367.317L46.8047 357.877L53.3909 340.533C62.1724 344.046 62.7579 348.437 62.1724 349.973C62.5237 351.905 66.1241 354.291 67.8805 355.242Z" fill="#8779DB"/>
<path d="M65.2749 359.273C69.8413 359.273 73.3246 360.737 74.4955 361.469L61.3232 370.909L47.4922 366.299L48.5899 354.444L49.7167 353.423L50.4084 352.982L58.7081 355.749C60.0914 355.403 63.5497 357.478 65.2749 359.273Z" fill="#8779DB"/>
<path d="M116.253 328.061H118.01L118.144 329.378C95.7512 351.551 62.8203 377.896 97.5075 392.166L88.2868 400.728L52.941 389.312C46.867 371.09 37.5732 339.345 48.9892 358.137C60.4053 376.93 97.3731 344.306 116.253 328.061Z" fill="#9E8FF6"/>
<path d="M118.672 338.157C124.358 347.278 126.901 359.263 125.039 369.862C123.178 380.461 117.471 389.989 109.022 396.602C100.573 403.215 89.9835 406.443 79.3033 405.66C68.6231 404.877 58.6115 400.14 51.2065 392.365C43.8014 384.591 39.5295 374.331 39.2176 363.573C38.9057 352.814 42.5759 342.322 49.5179 334.127C56.4599 325.932 66.18 320.617 76.7968 319.211C87.4135 317.804 98.1719 320.407 106.99 326.514L98.6944 333.108C92.0251 328.489 86.2038 328.647 78.1738 329.711C70.1437 330.775 62.7919 334.795 57.5413 340.993C52.2906 347.191 49.5146 355.127 49.7506 363.264C49.9865 371.401 53.2176 379.161 58.8184 385.042C64.4193 390.922 71.9915 394.505 80.0696 395.097C88.1476 395.689 96.157 393.248 102.547 388.246C108.938 383.245 113.254 376.038 114.662 368.021C116.07 360.005 116.387 353.398 112.086 346.5L118.672 338.157Z" fill="black"/>
<g filter="url(#filter1_d_345_10640)">
<rect x="303.199" y="305.4" width="113" height="113" rx="20" fill="#6F33F5"/>
</g>
<path d="M358.746 338.212C358.746 336.311 360.821 335.137 362.451 336.117L373.453 342.732C374.189 343.175 374.638 343.97 374.638 344.828V370.601C374.638 372.502 372.563 373.676 370.934 372.696L359.931 366.081C359.196 365.639 358.746 364.844 358.746 363.985V338.212Z" fill="white"/>
<path d="M344.68 329.166C344.68 327.242 346.799 326.071 348.428 327.097L373.495 342.884C374.206 343.332 374.637 344.113 374.637 344.953V358.041C374.637 359.965 372.517 361.135 370.889 360.11L345.822 344.323C345.111 343.875 344.68 343.094 344.68 342.254V329.166Z" fill="white"/>
<path d="M344.688 379.398C344.688 377.496 346.763 376.323 348.392 377.303L359.395 383.918C360.13 384.36 360.58 385.155 360.58 386.013V394.437C360.58 396.338 358.505 397.512 356.875 396.532L345.873 389.917C345.137 389.474 344.688 388.679 344.688 387.821V379.398Z" fill="white"/>
<path d="M344.688 352.656C344.688 350.754 346.763 349.581 348.392 350.56L359.395 357.176C360.13 357.618 360.58 358.413 360.58 359.271V375.489C360.58 377.39 358.505 378.564 356.875 377.584L345.873 370.969C345.137 370.527 344.688 369.731 344.688 368.873V352.656Z" fill="white"/>
<g filter="url(#filter2_d_345_10640)">
<rect x="579.199" y="305.4" width="113" height="113" rx="20" fill="white"/>
</g>
<path d="M637.003 319.07C636.465 319.624 635.768 320.494 635.452 320.985C631.415 327.301 631.843 337.954 636.37 343.431C636.829 344.001 637.383 344.571 637.604 344.713C638.016 344.982 638.016 344.966 638.791 344.238C641.166 341.959 642.717 338.128 643.144 333.49C643.303 331.733 643.287 331.068 643.081 329.137C642.764 326.32 642.258 324.531 641.134 322.267C640.453 320.906 639.994 320.225 639.108 319.276L637.968 318.057L637.003 319.07Z" fill="#09628A"/>
<path d="M621.233 325.443C619.746 325.997 618.495 327.232 617.91 328.688C617.561 329.511 617.545 329.812 617.498 335.21L617.45 340.861L611.483 340.908C605.69 340.971 605.484 340.971 604.598 341.336C603.474 341.779 602.176 342.998 601.622 344.121C601.306 344.786 601.242 345.15 601.242 346.338C601.242 347.541 601.306 347.889 601.654 348.633C602.176 349.741 603.221 350.77 604.329 351.308L605.199 351.719L616.802 351.767L628.404 351.814L628.356 340.528L628.309 329.242L627.897 328.371C627.375 327.263 626.33 326.219 625.222 325.696C624.162 325.206 622.183 325.079 621.233 325.443Z" fill="#09628A"/>
<path d="M651.338 325.398C649.945 325.762 648.141 327.566 647.713 329.023C647.587 329.418 647.539 333.091 647.539 340.705V351.801H658.825C670.965 351.801 670.854 351.801 672.168 350.962C673.102 350.376 673.751 349.616 674.242 348.556C674.859 347.242 674.859 345.485 674.273 344.203C673.498 342.541 671.899 341.338 670.063 341.037C669.556 340.942 666.707 340.879 663.732 340.879H658.302V335.323C658.302 331.951 658.239 329.513 658.128 329.118C657.748 327.582 655.976 325.809 654.409 325.398C653.601 325.176 652.129 325.176 651.338 325.398Z" fill="#09628A"/>
<path d="M636.492 352.435C634.307 354.002 631.87 355.125 628.91 355.949C627.707 356.281 627.343 356.297 615.962 356.392C604.692 356.487 604.186 356.503 602.714 356.835C600.909 357.247 599.121 357.88 597.506 358.703C596.367 359.273 594.087 360.761 593.201 361.505L592.758 361.885L593.438 362.439C595.892 364.449 599.517 366 603.379 366.712C605.088 367.029 605.911 367.061 616.675 367.156C629.084 367.266 628.435 367.219 630.936 368.153C632.329 368.675 635.273 370.179 636.618 371.034L637.726 371.746L638.834 371.034C640.18 370.179 643.124 368.675 644.517 368.153C647.018 367.219 646.369 367.266 658.778 367.156C669.541 367.061 670.365 367.029 672.074 366.712C675.936 366 679.561 364.449 682.014 362.439L682.695 361.885L682.252 361.505C681.365 360.761 679.086 359.273 677.946 358.703C676.332 357.88 674.543 357.247 672.739 356.835C671.267 356.503 670.76 356.487 659.49 356.392C648.11 356.297 647.746 356.281 646.543 355.949C643.567 355.125 640.845 353.843 638.866 352.355L637.758 351.532L636.492 352.435Z" fill="#09628A"/>
<path d="M605.041 371.337C603.553 371.812 602.319 372.872 601.654 374.281C601.306 375.025 601.242 375.373 601.242 376.576C601.242 377.763 601.306 378.127 601.622 378.792C602.176 379.916 603.474 381.135 604.598 381.578C605.484 381.942 605.69 381.942 611.483 382.006L617.435 382.053L617.498 387.704C617.561 393.213 617.561 393.387 617.925 394.305C618.384 395.429 619.556 396.679 620.711 397.233C621.376 397.566 621.74 397.629 622.927 397.629C624.13 397.629 624.494 397.566 625.222 397.217C626.33 396.695 627.375 395.65 627.897 394.542L628.309 393.672L628.356 382.385L628.404 371.115L617.039 371.131C608.333 371.131 605.532 371.178 605.041 371.337Z" fill="#09628A"/>
<path d="M647.571 382.465L647.618 393.83L648.014 394.606C648.52 395.603 649.644 396.727 650.61 397.218C651.559 397.677 653.111 397.819 654.25 397.55C655.928 397.154 657.733 395.413 658.128 393.799C658.239 393.403 658.302 390.965 658.302 387.594V382.037H663.732C666.707 382.037 669.556 381.974 670.063 381.879C671.899 381.578 673.498 380.375 674.273 378.713C674.859 377.431 674.859 375.674 674.242 374.36C673.751 373.3 673.102 372.54 672.168 371.954C670.854 371.115 670.965 371.115 658.809 371.115H647.539L647.571 382.465Z" fill="#09628A"/>
<path d="M637.367 378.411C636.101 379.456 634.613 381.893 633.822 384.173C631.827 390.03 632.492 397.295 635.452 401.933C635.768 402.424 636.465 403.294 636.987 403.833L637.953 404.846L638.649 404.165C641.847 401.063 643.667 395.127 643.144 389.491C642.765 385.313 641.72 382.305 639.662 379.63C639.346 379.218 638.839 378.664 638.507 378.411L637.937 377.936L637.367 378.411Z" fill="#09628A"/>
<g filter="url(#filter3_d_345_10640)">
<rect x="855.199" y="305.4" width="113" height="113" rx="20" fill="white"/>
</g>
<path d="M871.889 366.993C873.557 366.795 876.869 366.306 877.894 364.684C880.844 360.019 885.369 354.236 891.567 355.924C895.698 357.05 899.115 359.771 901.856 362.989C896.547 363.478 891.351 365.028 886.941 368.016C878.822 373.524 877.069 383.125 879.113 392.217C879.578 394.277 889.679 392.106 889.22 390.068C886.81 379.361 890.546 364.775 904.104 366.639V364.882L903.977 364.919C903.395 365.077 902.843 365.329 902.343 365.665C901.847 366.07 901.446 366.578 901.167 367.154C900.247 368.953 899.843 370.973 900.002 372.988C900.135 375.007 900.768 377.019 901.994 378.626C902.578 379.388 903.292 380.039 904.104 380.55V402.165C904.104 403.675 913.601 403.218 913.601 400.621V380.285C914.096 380.025 914.564 379.718 914.998 379.367C917.05 377.661 918.279 374.925 917.941 372.279C917.608 369.675 915.877 367.444 913.88 365.735C913.789 365.657 913.694 365.582 913.601 365.505V367.191C913.888 367.03 914.144 366.819 914.357 366.57C926.042 368.109 931.435 380.287 928.748 392.215C928.566 393.03 938.203 392.973 938.858 390.066C940.65 382.104 939.7 373.524 933.254 367.858C928.165 363.381 921.295 362.4 914.714 362.875C918.172 358.22 922.591 354.042 928.81 356.413C933.677 358.265 937.253 362.099 939.985 366.421C941.497 368.812 950.688 365.214 950.093 364.272C944.944 356.132 937.385 351.287 927.591 351.952C923.009 352.235 918.546 353.528 914.522 355.736C914.875 353.854 915.515 352.037 916.419 350.349C919.737 344.214 924.805 342.476 931.416 343.964C933.592 344.455 936.428 343.909 938.438 343.003C939.156 342.678 942.067 341.182 939.841 340.681C931.333 338.763 921.781 339.494 914.134 343.978C912.569 344.887 911.134 346.002 909.868 347.293C908.505 345.492 906.81 343.969 904.873 342.807C898.045 338.678 889.552 339.222 882.071 340.907C881.343 341.071 876.863 342.053 877.322 343.396C877.795 344.796 881.873 343.919 882.676 343.739C892.174 341.599 899.139 346.531 902.525 353.7C898.987 352.188 895.045 351.568 890.712 352.039C881.066 353.084 873.177 357.808 867.989 366.004C867.073 367.452 871.463 367.047 871.889 366.993Z" fill="#CC7D45"/>
<path d="M917.298 328.901C917.385 329.17 917.034 329.798 916.244 330.785C915.542 331.682 914.445 332.938 912.953 334.553C911.724 335.899 910.583 337.021 909.529 337.918C909.441 338.008 909.31 338.098 909.134 338.187L908.608 338.591C908.344 338.771 908.125 338.95 907.949 339.129C907.774 339.219 907.686 339.219 907.686 339.129C907.598 337.963 906.764 336.662 905.184 335.226C904.833 334.867 903.341 333.432 900.707 330.919C900.532 330.74 901.19 329.753 902.682 327.959C904.175 326.164 905.755 324.459 907.423 322.844C909.09 321.229 910.056 320.556 910.319 320.825C910.67 321.094 911.373 321.723 912.426 322.71C913.479 323.697 914.269 324.459 914.796 324.998C916.376 326.433 917.21 327.734 917.298 328.901Z" fill="#CC7D45"/>
<g filter="url(#filter4_d_345_10640)">
<rect x="1131.2" y="305.4" width="113" height="113" rx="20" fill="white"/>
</g>
<path d="M1197.22 325.866L1204.27 319.75V400.333H1197.22V325.866Z" fill="#841E1E"/>
<path d="M1185.13 337.034L1192.18 331.836V400.331H1185.13V337.034Z" fill="#841E1E"/>
<path d="M1173.04 349.136L1180.09 344.932V400.332H1173.04V349.136Z" fill="#841E1E"/>
<path d="M1202.67 314.272C1203.43 315.274 1203.75 316.286 1203.64 317.311C1203.54 318.354 1203 319.237 1202.04 319.96C1201.16 320.627 1200.13 320.83 1198.97 320.569C1197.82 320.31 1197.1 320.293 1196.8 320.517C1196.17 320.99 1196.26 321.786 1197.07 322.904L1195.1 324.393L1194.81 324.017C1194.06 323.016 1193.74 322.003 1193.85 320.979C1193.96 319.942 1194.49 319.063 1195.45 318.34C1196.34 317.668 1197.37 317.465 1198.52 317.731C1199.69 317.998 1200.42 318.02 1200.72 317.796C1201.35 317.322 1201.25 316.516 1200.42 315.378L1202.39 313.897L1202.67 314.272Z" fill="#841E1E"/>
<path d="M1190.39 325.833C1191.15 326.834 1191.47 327.847 1191.36 328.872C1191.25 329.915 1190.72 330.798 1189.76 331.521C1188.88 332.187 1187.85 332.39 1186.69 332.13C1185.54 331.871 1184.82 331.853 1184.52 332.077C1183.89 332.551 1183.98 333.346 1184.79 334.464L1182.81 335.953L1182.53 335.578C1181.78 334.577 1181.46 333.564 1181.56 332.539C1181.67 331.503 1182.21 330.623 1183.17 329.9C1184.06 329.228 1185.09 329.025 1186.24 329.291C1187.41 329.558 1188.14 329.58 1188.43 329.356C1189.06 328.883 1188.97 328.077 1188.14 326.939L1190.11 325.457L1190.39 325.833Z" fill="#841E1E"/>
<path d="M1179.56 338.837C1180.31 339.838 1180.63 340.851 1180.52 341.875C1180.42 342.919 1179.89 343.802 1178.93 344.524C1178.04 345.191 1177.02 345.394 1175.86 345.134C1174.71 344.875 1173.98 344.857 1173.69 345.081C1173.06 345.555 1173.15 346.35 1173.96 347.468L1171.98 348.957L1171.7 348.582C1170.94 347.581 1170.62 346.568 1170.73 345.543C1170.84 344.507 1171.37 343.627 1172.33 342.904C1173.23 342.232 1174.25 342.029 1175.4 342.295C1176.57 342.562 1177.3 342.584 1177.6 342.36C1178.23 341.887 1178.13 341.081 1177.31 339.943L1179.27 338.461L1179.56 338.837Z" fill="#841E1E"/>
<path d="M1172.74 406.094L1176.04 402.268L1179.87 405.574L1176.56 409.4L1172.74 406.094Z" fill="#841E1E"/>
<path d="M1185.02 406.094L1188.33 402.268L1192.15 405.574L1188.85 409.4L1185.02 406.094Z" fill="#841E1E"/>
<path d="M1197.3 406.094L1200.61 402.268L1204.43 405.574L1201.13 409.4L1197.3 406.094Z" fill="#841E1E"/>
<g filter="url(#filter5_d_345_10640)">
<rect x="27.1992" y="571.4" width="113" height="113" rx="20" fill="black"/>
</g>
<path d="M75.0835 606.607C75.8406 603.078 79.6135 602.4 83.0325 602.4C86.4515 602.4 90.2245 603.078 90.9816 606.607C92.5003 613.686 73.5647 613.686 75.0835 606.607Z" fill="#FFE420"/>
<path d="M89.5195 617.096C89.5195 611.835 101.813 607.388 111.183 606.574C119.885 605.818 132.846 607.192 132.846 612.763C132.846 618.334 122.162 629.68 111.183 630.094C101.324 630.466 89.5195 621.119 89.5195 617.096Z" fill="#FFE420"/>
<path d="M76.5234 617.096C76.5234 611.835 64.23 607.388 54.8601 606.574C46.1575 605.818 33.1968 607.192 33.1968 612.763C33.1968 618.334 43.8811 629.68 54.8601 630.094C64.7191 630.466 76.5234 621.119 76.5234 617.096Z" fill="#FFE420"/>
<path d="M82.7119 620.93C91.0683 620.93 92.6151 629.643 92.6151 637.023C92.6151 640.736 88.902 653.116 82.7119 653.116C76.5217 653.116 72.8086 640.736 72.8086 637.023C72.8086 629.643 74.3554 620.93 82.7119 620.93Z" fill="#FFE420"/>
<g filter="url(#filter6_d_345_10640)">
<rect x="303.199" y="571.4" width="113" height="113" rx="20" fill="white"/>
</g>
<path d="M363.214 639.711C366.295 619.643 366.295 598.73 366.295 598.73L366.777 598.947C369.665 600.182 375.411 602.96 381.702 607.591L382.793 608.394C382.369 616.686 378.072 640.902 363.214 639.711Z" fill="#138BEA"/>
<path d="M362.068 596.409C361.855 606.635 361.021 629.538 357.744 651.744C376.455 653.305 383.427 625.487 385.223 610.466L385.591 611.176C384.61 631.023 383.633 646.367 382.662 658.282C376.74 658.55 369.927 658.282 362.095 658.282C354.215 658.282 347.365 658.119 341.417 657.848C340.453 645.935 339.482 630.593 338.508 610.748L340.065 609.556C349.042 602.68 357.24 598.555 361.362 596.721L362.049 596.4L362.068 596.409Z" fill="#223B71"/>
<path d="M403.081 641.036C396.419 635.981 390.334 632.947 387.275 631.599L386.766 631.363C386.766 631.363 386.764 642.915 385.59 657.469C392.145 657.114 397.513 656.626 401.896 656.083C403.402 650.515 404.077 645.121 404.236 641.913L403.081 641.036Z" fill="#223B71"/>
<path d="M338.041 657.469C336.274 637.611 336.274 621.107 336.274 621.107L335.659 621.398C331.969 623.06 324.63 626.799 316.593 633.031L315.199 634.112C315.429 638.856 316.555 647.475 319.23 655.692C323.991 656.388 330.14 657.029 338.041 657.469Z" fill="#223B71"/>
<rect x="579.199" y="571.4" width="113" height="113" rx="20" fill="#FFE420"/>
<path d="M625.089 651.242C632.763 642.399 635.385 634.179 634.802 627.811C627.868 626.928 620.782 627.75 611.422 636.511C602.062 645.273 601.396 653.226 601.227 659.982C608.265 659.923 615.534 659.776 625.089 651.242Z" fill="#14181B"/>
<path d="M658.195 619.179C665.899 610.368 668.623 602.254 668.163 596.014C661.359 595.268 654.376 596.197 645.016 604.959C635.655 613.721 634.86 621.538 634.574 628.172C641.497 627.992 648.647 627.721 658.195 619.179Z" fill="#14181B"/>
<path d="M644.742 651.183C637.039 642.371 634.315 634.258 634.775 628.018C641.579 627.272 648.562 628.201 657.922 636.963C667.282 645.724 668.078 653.542 668.364 660.176C661.44 659.996 654.29 659.725 644.742 651.183Z" fill="#14181B"/>
<path d="M617.821 624.91V589.74C617.799 589.264 617.8 588.815 617.821 588.4V589.74C618.111 595.834 622.309 606.43 637.78 608.851C632.822 608.767 621.889 611.862 617.821 624.91Z" fill="#14181B"/>
<path d="M618.241 624.91V589.74C618.264 589.264 618.263 588.815 618.241 588.4V589.74C617.951 595.834 613.754 606.43 598.283 608.851C603.24 608.767 614.173 611.862 618.241 624.91Z" fill="#14181B"/>
<g filter="url(#filter7_d_345_10640)">
<rect x="855.199" y="571.4" width="113" height="113" rx="20" fill="white"/>
</g>
<path d="M934.933 651.514C933.749 651.514 932.698 651.317 931.78 650.922C930.87 650.519 930.149 649.915 929.617 649.11C929.094 648.296 928.832 647.278 928.832 646.053C928.832 645.023 929.013 644.153 929.376 643.444C929.738 642.735 930.237 642.159 930.874 641.717C931.51 641.274 932.243 640.939 933.072 640.714C933.902 640.48 934.788 640.323 935.73 640.243C936.785 640.146 937.635 640.045 938.279 639.941C938.923 639.828 939.391 639.671 939.681 639.47C939.979 639.26 940.127 638.966 940.127 638.588V638.527C940.127 637.907 939.914 637.428 939.487 637.09C939.06 636.751 938.485 636.582 937.76 636.582C936.978 636.582 936.35 636.751 935.875 637.09C935.4 637.428 935.098 637.895 934.969 638.491L929.521 638.298C929.682 637.17 930.096 636.163 930.765 635.278C931.441 634.384 932.368 633.683 933.544 633.176C934.727 632.66 936.149 632.402 937.808 632.402C938.992 632.402 940.083 632.543 941.082 632.825C942.081 633.099 942.95 633.502 943.691 634.033C944.432 634.557 945.004 635.201 945.407 635.966C945.817 636.731 946.023 637.605 946.023 638.588V651.2H940.466V648.615H940.321C939.991 649.243 939.568 649.774 939.052 650.209C938.545 650.644 937.945 650.97 937.252 651.188C936.568 651.405 935.795 651.514 934.933 651.514ZM936.757 647.648C937.393 647.648 937.965 647.519 938.472 647.262C938.988 647.004 939.399 646.649 939.705 646.198C940.011 645.739 940.164 645.208 940.164 644.604V642.84C939.995 642.929 939.789 643.009 939.548 643.082C939.314 643.154 939.056 643.223 938.774 643.287C938.493 643.351 938.203 643.408 937.905 643.456C937.607 643.504 937.321 643.549 937.047 643.589C936.491 643.678 936.016 643.815 935.621 644C935.235 644.185 934.937 644.427 934.727 644.725C934.526 645.015 934.425 645.361 934.425 645.764C934.425 646.376 934.643 646.843 935.078 647.165C935.521 647.487 936.08 647.648 936.757 647.648Z" fill="#0097FF"/>
<path d="M926.334 638.31L920.91 638.455C920.854 638.068 920.701 637.726 920.451 637.428C920.201 637.122 919.875 636.884 919.472 636.715C919.078 636.538 918.619 636.449 918.095 636.449C917.411 636.449 916.827 636.586 916.343 636.86C915.868 637.134 915.635 637.504 915.643 637.972C915.635 638.334 915.78 638.648 916.078 638.914C916.384 639.18 916.927 639.393 917.709 639.554L921.284 640.231C923.137 640.585 924.514 641.173 925.416 641.994C926.326 642.816 926.785 643.903 926.793 645.256C926.785 646.529 926.407 647.636 925.658 648.578C924.917 649.521 923.902 650.254 922.613 650.777C921.325 651.292 919.851 651.55 918.192 651.55C915.542 651.55 913.452 651.007 911.922 649.919C910.4 648.824 909.53 647.358 909.312 645.522L915.147 645.377C915.276 646.053 915.611 646.569 916.15 646.923C916.69 647.278 917.378 647.455 918.216 647.455C918.973 647.455 919.589 647.314 920.064 647.032C920.539 646.75 920.781 646.376 920.789 645.909C920.781 645.49 920.596 645.156 920.233 644.906C919.871 644.648 919.303 644.447 918.53 644.302L915.292 643.686C913.432 643.347 912.047 642.723 911.137 641.813C910.227 640.895 909.776 639.727 909.784 638.31C909.776 637.07 910.106 636.01 910.774 635.133C911.443 634.247 912.393 633.57 913.625 633.103C914.858 632.636 916.311 632.402 917.986 632.402C920.499 632.402 922.48 632.93 923.93 633.985C925.38 635.032 926.181 636.474 926.334 638.31Z" fill="#0097FF"/>
<path d="M897.734 651.55C895.785 651.55 894.11 651.152 892.708 650.354C891.315 649.549 890.24 648.429 889.483 646.996C888.734 645.554 888.359 643.883 888.359 641.982C888.359 640.074 888.734 638.402 889.483 636.969C890.24 635.527 891.315 634.408 892.708 633.61C894.11 632.805 895.785 632.402 897.734 632.402C899.683 632.402 901.354 632.805 902.747 633.61C904.149 634.408 905.224 635.527 905.973 636.969C906.73 638.402 907.109 640.074 907.109 641.982C907.109 643.883 906.73 645.554 905.973 646.996C905.224 648.429 904.149 649.549 902.747 650.354C901.354 651.152 899.683 651.55 897.734 651.55ZM897.77 647.092C898.479 647.092 899.079 646.875 899.57 646.44C900.062 646.005 900.436 645.401 900.694 644.628C900.96 643.855 901.092 642.961 901.092 641.946C901.092 640.915 900.96 640.013 900.694 639.24C900.436 638.467 900.062 637.863 899.57 637.428C899.079 636.993 898.479 636.776 897.77 636.776C897.037 636.776 896.417 636.993 895.91 637.428C895.41 637.863 895.028 638.467 894.762 639.24C894.504 640.013 894.376 640.915 894.376 641.946C894.376 642.961 894.504 643.855 894.762 644.628C895.028 645.401 895.41 646.005 895.91 646.44C896.417 646.875 897.037 647.092 897.77 647.092Z" fill="#0097FF"/>
<path d="M940.289 629.142V610.586H946.027V613.968H946.221C946.559 612.744 947.111 611.834 947.876 611.238C948.641 610.634 949.531 610.332 950.546 610.332C950.819 610.332 951.101 610.352 951.391 610.392C951.681 610.425 951.951 610.477 952.201 610.549V615.684C951.919 615.587 951.548 615.511 951.089 615.454C950.638 615.398 950.236 615.37 949.881 615.37C949.18 615.37 948.548 615.527 947.984 615.841C947.429 616.147 946.99 616.578 946.668 617.133C946.354 617.681 946.197 618.325 946.197 619.066V629.142H940.289Z" fill="#0097FF"/>
<path d="M925.304 629.407C923.935 629.407 922.691 629.053 921.571 628.344C920.452 627.636 919.558 626.572 918.889 625.155C918.221 623.738 917.887 621.978 917.887 619.876C917.887 617.693 918.233 615.897 918.926 614.488C919.618 613.078 920.524 612.035 921.644 611.359C922.771 610.682 923.983 610.344 925.28 610.344C926.255 610.344 927.088 610.513 927.781 610.851C928.473 611.182 929.045 611.609 929.496 612.132C929.947 612.656 930.29 613.199 930.523 613.763H930.644V604.4H936.551V629.142H930.704V626.134H930.523C930.273 626.705 929.919 627.241 929.46 627.74C929.001 628.24 928.425 628.642 927.732 628.948C927.048 629.254 926.239 629.407 925.304 629.407ZM927.358 624.805C928.075 624.805 928.687 624.603 929.194 624.201C929.702 623.79 930.092 623.214 930.366 622.473C930.64 621.732 930.777 620.862 930.777 619.864C930.777 618.849 930.64 617.975 930.366 617.242C930.1 616.509 929.71 615.945 929.194 615.551C928.687 615.156 928.075 614.959 927.358 614.959C926.625 614.959 926.005 615.16 925.498 615.563C924.99 615.966 924.604 616.533 924.338 617.266C924.08 617.999 923.951 618.865 923.951 619.864C923.951 620.862 924.084 621.732 924.35 622.473C924.616 623.214 924.998 623.79 925.498 624.201C926.005 624.603 926.625 624.805 927.358 624.805Z" fill="#0097FF"/>
<path d="M903.823 629.455C902.64 629.455 901.588 629.258 900.67 628.863C899.76 628.461 899.039 627.857 898.508 627.051C897.984 626.238 897.723 625.219 897.723 623.995C897.723 622.964 897.904 622.094 898.266 621.385C898.629 620.677 899.128 620.101 899.764 619.658C900.401 619.215 901.133 618.881 901.963 618.655C902.793 618.422 903.678 618.265 904.621 618.184C905.676 618.087 906.525 617.987 907.17 617.882C907.814 617.769 908.281 617.612 908.571 617.411C908.869 617.202 909.018 616.908 909.018 616.529V616.469C909.018 615.849 908.805 615.369 908.378 615.031C907.951 614.693 907.375 614.524 906.65 614.524C905.869 614.524 905.241 614.693 904.766 615.031C904.291 615.369 903.989 615.836 903.86 616.432L898.411 616.239C898.572 615.112 898.987 614.105 899.656 613.219C900.332 612.325 901.258 611.624 902.434 611.117C903.618 610.601 905.04 610.344 906.699 610.344C907.883 610.344 908.974 610.485 909.972 610.767C910.971 611.04 911.841 611.443 912.582 611.975C913.323 612.498 913.895 613.142 914.297 613.908C914.708 614.673 914.913 615.546 914.913 616.529V629.141H909.356V626.556H909.211C908.881 627.184 908.458 627.716 907.943 628.151C907.436 628.586 906.836 628.912 906.143 629.129C905.458 629.347 904.685 629.455 903.823 629.455ZM905.648 625.59C906.284 625.59 906.856 625.461 907.363 625.203C907.879 624.945 908.289 624.591 908.595 624.14C908.901 623.681 909.054 623.149 909.054 622.545V620.781C908.885 620.87 908.68 620.951 908.438 621.023C908.205 621.096 907.947 621.164 907.665 621.228C907.383 621.293 907.093 621.349 906.795 621.398C906.497 621.446 906.211 621.49 905.938 621.53C905.382 621.619 904.907 621.756 904.512 621.941C904.125 622.126 903.827 622.368 903.618 622.666C903.417 622.956 903.316 623.302 903.316 623.705C903.316 624.317 903.533 624.784 903.968 625.106C904.411 625.428 904.971 625.59 905.648 625.59Z" fill="#0097FF"/>
<path d="M867.199 604.4H874.605L880.887 619.719H881.177L887.459 604.4H894.864V629.142H889.041V613.944H888.836L882.892 628.985H879.171L873.227 613.86H873.022V629.142H867.199V604.4Z" fill="#0097FF"/>
<g filter="url(#filter8_d_345_10640)">
<rect x="1131.2" y="571.4" width="113" height="113" rx="20" fill="white"/>
</g>
<path d="M1149.2 627.4C1149.2 622.43 1153.18 618.4 1158.09 618.4H1202.02C1206.93 618.4 1210.91 622.43 1210.91 627.4C1210.91 632.371 1206.93 636.401 1202.02 636.401H1158.09C1153.18 636.401 1149.2 632.371 1149.2 627.4Z" fill="#FFCA37"/>
<path d="M1149.2 600.4C1149.2 595.43 1153.18 591.4 1158.09 591.4H1202.02C1206.93 591.4 1210.91 595.43 1210.91 600.4C1210.91 605.371 1206.93 609.401 1202.02 609.401H1158.09C1153.18 609.401 1149.2 605.371 1149.2 600.4Z" fill="#FFCA37"/>
<path d="M1214.77 600.4C1214.77 595.43 1218.8 591.4 1223.77 591.4C1228.74 591.4 1232.77 595.43 1232.77 600.4C1232.77 605.371 1228.74 609.401 1223.77 609.401C1218.8 609.401 1214.77 605.371 1214.77 600.4Z" fill="#FFCA37"/>
<path d="M1214.77 627.4C1214.77 622.43 1218.8 618.4 1223.77 618.4C1228.74 618.4 1232.77 622.43 1232.77 627.4C1232.77 632.371 1228.74 636.401 1223.77 636.401C1218.8 636.401 1214.77 632.371 1214.77 627.4Z" fill="#FFCA37"/>
<path d="M1214.77 654.4C1214.77 649.43 1218.8 645.4 1223.77 645.4C1228.74 645.4 1232.77 649.43 1232.77 654.4C1232.77 659.371 1228.74 663.401 1223.77 663.401C1218.8 663.401 1214.77 659.371 1214.77 654.4Z" fill="#FFCA37"/>
<path d="M1149.2 654.4C1149.2 649.43 1153.18 645.4 1158.09 645.4H1202.02C1206.93 645.4 1210.91 649.43 1210.91 654.4C1210.91 659.371 1206.93 663.401 1202.02 663.401H1158.09C1153.18 663.401 1149.2 659.371 1149.2 654.4Z" fill="#FFCA37"/>
<defs>
<filter id="filter0_d_345_10640" x="535.799" y="0.000389099" width="199.8" height="199.8" filterUnits="userSpaceOnUse" color-interpolation-filters="sRGB">
<feFlood flood-opacity="0" result="BackgroundImageFix"/>
<feColorMatrix in="SourceAlpha" type="matrix" values="0 0 0 0 0 0 0 0 0 0 0 0 0 0 0 0 0 0 127 0" result="hardAlpha"/>
<feOffset dy="4"/>
<feGaussianBlur stdDeviation="21.7"/>
<feComposite in2="hardAlpha" operator="out"/>
<feColorMatrix type="matrix" values="0 0 0 0 0 0 0 0 0 0 0 0 0 0 0 0 0 0 0.25 0"/>
<feBlend mode="normal" in2="BackgroundImageFix" result="effect1_dropShadow_345_10640"/>
<feBlend mode="normal" in="SourceGraphic" in2="effect1_dropShadow_345_10640" result="shape"/>
</filter>
<filter id="filter1_d_345_10640" x="259.799" y="266" width="199.8" height="199.8" filterUnits="userSpaceOnUse" color-interpolation-filters="sRGB">
<feFlood flood-opacity="0" result="BackgroundImageFix"/>
<feColorMatrix in="SourceAlpha" type="matrix" values="0 0 0 0 0 0 0 0 0 0 0 0 0 0 0 0 0 0 127 0" result="hardAlpha"/>
<feOffset dy="4"/>
<feGaussianBlur stdDeviation="21.7"/>
<feComposite in2="hardAlpha" operator="out"/>
<feColorMatrix type="matrix" values="0 0 0 0 0 0 0 0 0 0 0 0 0 0 0 0 0 0 0.25 0"/>
<feBlend mode="normal" in2="BackgroundImageFix" result="effect1_dropShadow_345_10640"/>
<feBlend mode="normal" in="SourceGraphic" in2="effect1_dropShadow_345_10640" result="shape"/>
</filter>
<filter id="filter2_d_345_10640" x="551.999" y="278.2" width="167.4" height="167.4" filterUnits="userSpaceOnUse" color-interpolation-filters="sRGB">
<feFlood flood-opacity="0" result="BackgroundImageFix"/>
<feColorMatrix in="SourceAlpha" type="matrix" values="0 0 0 0 0 0 0 0 0 0 0 0 0 0 0 0 0 0 127 0" result="hardAlpha"/>
<feOffset/>
<feGaussianBlur stdDeviation="13.6"/>
<feComposite in2="hardAlpha" operator="out"/>
<feColorMatrix type="matrix" values="0 0 0 0 0 0 0 0 0 0 0 0 0 0 0 0 0 0 0.15 0"/>
<feBlend mode="normal" in2="BackgroundImageFix" result="effect1_dropShadow_345_10640"/>
<feBlend mode="normal" in="SourceGraphic" in2="effect1_dropShadow_345_10640" result="shape"/>
</filter>
<filter id="filter3_d_345_10640" x="827.999" y="278.2" width="167.4" height="167.4" filterUnits="userSpaceOnUse" color-interpolation-filters="sRGB">
<feFlood flood-opacity="0" result="BackgroundImageFix"/>
<feColorMatrix in="SourceAlpha" type="matrix" values="0 0 0 0 0 0 0 0 0 0 0 0 0 0 0 0 0 0 127 0" result="hardAlpha"/>
<feOffset/>
<feGaussianBlur stdDeviation="13.6"/>
<feComposite in2="hardAlpha" operator="out"/>
<feColorMatrix type="matrix" values="0 0 0 0 0 0 0 0 0 0 0 0 0 0 0 0 0 0 0.15 0"/>
<feBlend mode="normal" in2="BackgroundImageFix" result="effect1_dropShadow_345_10640"/>
<feBlend mode="normal" in="SourceGraphic" in2="effect1_dropShadow_345_10640" result="shape"/>
</filter>
<filter id="filter4_d_345_10640" x="1104" y="278.2" width="167.4" height="167.4" filterUnits="userSpaceOnUse" color-interpolation-filters="sRGB">
<feFlood flood-opacity="0" result="BackgroundImageFix"/>
<feColorMatrix in="SourceAlpha" type="matrix" values="0 0 0 0 0 0 0 0 0 0 0 0 0 0 0 0 0 0 127 0" result="hardAlpha"/>
<feOffset/>
<feGaussianBlur stdDeviation="13.6"/>
<feComposite in2="hardAlpha" operator="out"/>
<feColorMatrix type="matrix" values="0 0 0 0 0 0 0 0 0 0 0 0 0 0 0 0 0 0 0.15 0"/>
<feBlend mode="normal" in2="BackgroundImageFix" result="effect1_dropShadow_345_10640"/>
<feBlend mode="normal" in="SourceGraphic" in2="effect1_dropShadow_345_10640" result="shape"/>
</filter>
<filter id="filter5_d_345_10640" x="-0.000782013" y="544.2" width="167.4" height="167.4" filterUnits="userSpaceOnUse" color-interpolation-filters="sRGB">
<feFlood flood-opacity="0" result="BackgroundImageFix"/>
<feColorMatrix in="SourceAlpha" type="matrix" values="0 0 0 0 0 0 0 0 0 0 0 0 0 0 0 0 0 0 127 0" result="hardAlpha"/>
<feOffset/>
<feGaussianBlur stdDeviation="13.6"/>
<feComposite in2="hardAlpha" operator="out"/>
<feColorMatrix type="matrix" values="0 0 0 0 0 0 0 0 0 0 0 0 0 0 0 0 0 0 0.15 0"/>
<feBlend mode="normal" in2="BackgroundImageFix" result="effect1_dropShadow_345_10640"/>
<feBlend mode="normal" in="SourceGraphic" in2="effect1_dropShadow_345_10640" result="shape"/>
</filter>
<filter id="filter6_d_345_10640" x="275.999" y="544.2" width="167.4" height="167.4" filterUnits="userSpaceOnUse" color-interpolation-filters="sRGB">
<feFlood flood-opacity="0" result="BackgroundImageFix"/>
<feColorMatrix in="SourceAlpha" type="matrix" values="0 0 0 0 0 0 0 0 0 0 0 0 0 0 0 0 0 0 127 0" result="hardAlpha"/>
<feOffset/>
<feGaussianBlur stdDeviation="13.6"/>
<feComposite in2="hardAlpha" operator="out"/>
<feColorMatrix type="matrix" values="0 0 0 0 0 0 0 0 0 0 0 0 0 0 0 0 0 0 0.15 0"/>
<feBlend mode="normal" in2="BackgroundImageFix" result="effect1_dropShadow_345_10640"/>
<feBlend mode="normal" in="SourceGraphic" in2="effect1_dropShadow_345_10640" result="shape"/>
</filter>
<filter id="filter7_d_345_10640" x="827.999" y="544.2" width="167.4" height="167.4" filterUnits="userSpaceOnUse" color-interpolation-filters="sRGB">
<feFlood flood-opacity="0" result="BackgroundImageFix"/>
<feColorMatrix in="SourceAlpha" type="matrix" values="0 0 0 0 0 0 0 0 0 0 0 0 0 0 0 0 0 0 127 0" result="hardAlpha"/>
<feOffset/>
<feGaussianBlur stdDeviation="13.6"/>
<feComposite in2="hardAlpha" operator="out"/>
<feColorMatrix type="matrix" values="0 0 0 0 0 0 0 0 0 0 0 0 0 0 0 0 0 0 0.15 0"/>
<feBlend mode="normal" in2="BackgroundImageFix" result="effect1_dropShadow_345_10640"/>
<feBlend mode="normal" in="SourceGraphic" in2="effect1_dropShadow_345_10640" result="shape"/>
</filter>
<filter id="filter8_d_345_10640" x="1104" y="544.2" width="167.4" height="167.4" filterUnits="userSpaceOnUse" color-interpolation-filters="sRGB">
<feFlood flood-opacity="0" result="BackgroundImageFix"/>
<feColorMatrix in="SourceAlpha" type="matrix" values="0 0 0 0 0 0 0 0 0 0 0 0 0 0 0 0 0 0 127 0" result="hardAlpha"/>
<feOffset/>
<feGaussianBlur stdDeviation="13.6"/>
<feComposite in2="hardAlpha" operator="out"/>
<feColorMatrix type="matrix" values="0 0 0 0 0 0 0 0 0 0 0 0 0 0 0 0 0 0 0.15 0"/>
<feBlend mode="normal" in2="BackgroundImageFix" result="effect1_dropShadow_345_10640"/>
<feBlend mode="normal" in="SourceGraphic" in2="effect1_dropShadow_345_10640" result="shape"/>
</filter>
</defs>
</svg>
